<svg width="135" height="152" viewBox="0 0 135 152" fill="none" xmlns="http://www.w3.org/2000/svg">
<g clip-path="url(#clip0_2_265)">
<path d="M9.85503 49.7863H9.45003C4.26941 49.7863 0.0422211 53.8297 0.0422211 58.7624V97.8965C0.0422211 102.846 4.26097 106.881 9.45003 106.881H9.86347C15.0441 106.881 19.2713 102.838 19.2713 97.8965V58.7624C19.2713 53.8213 15.0357 49.7695 9.85503 49.7695V49.7863ZM23.7769 112.997C23.7769 117.535 27.6582 121.243 32.4253 121.243H41.6644V142.374C41.6644 147.332 45.9085 151.376 51.0807 151.376H51.4857C56.6747 151.376 60.9019 147.332 60.9019 142.374V121.234H73.8282V142.374C73.8282 147.332 78.0807 151.376 83.2528 151.376H83.6494C88.8385 151.376 93.0657 147.332 93.0657 142.374V121.234H102.313C107.072 121.234 110.962 117.543 110.962 112.997V51.2124H23.7769V112.988V112.997ZM89.0747 13.756L96.4153 2.93433C96.5276 2.77092 96.605 2.58641 96.6429 2.39215C96.6808 2.19789 96.6784 1.99797 96.6357 1.80469C96.593 1.61141 96.511 1.42885 96.3948 1.26822C96.2785 1.1076 96.1305 0.97231 95.9597 0.870666C95.613 0.650853 95.194 0.573479 94.7911 0.654859C94.3881 0.736238 94.0327 0.970011 93.7997 1.30689L86.1891 12.5061C80.1923 10.1818 73.8098 8.99804 67.3735 9.01628C60.9316 8.99753 54.5435 10.1813 48.541 12.5061L40.9472 1.2985C40.7088 0.965462 40.3508 0.73622 39.9473 0.658156C39.5437 0.580092 39.1254 0.659174 38.7788 0.879055C38.6073 0.979998 38.4585 1.11477 38.3414 1.27507C38.2243 1.43538 38.1415 1.61781 38.098 1.81114C38.0546 2.00448 38.0514 2.20461 38.0886 2.39922C38.1259 2.59383 38.2028 2.7788 38.3147 2.94272L45.6638 13.7644C32.4169 19.9638 23.49 31.6411 23.49 45.0466C23.49 45.8687 23.5407 46.6824 23.6166 47.4793H111.122C111.198 46.6824 111.24 45.8687 111.24 45.0466C111.24 31.6411 102.305 19.9638 89.0663 13.756H89.0747ZM47.0813 33.1343C46.538 33.1466 45.9977 33.052 45.4913 32.856C44.9849 32.6601 44.5224 32.3666 44.1304 31.9925C43.7385 31.6183 43.4247 31.1709 43.2071 30.6758C42.9895 30.1808 42.8724 29.6478 42.8625 29.1077C42.8625 26.8846 44.7525 25.0978 47.0813 25.0978C49.4185 25.0978 51.3 26.8846 51.3 29.1077C51.2902 29.6478 51.1731 30.1808 50.9555 30.6758C50.7379 31.1709 50.4241 31.6183 50.0321 31.9925C49.6401 32.3666 49.1776 32.6601 48.6713 32.856C48.1649 33.052 47.6245 33.1466 47.0813 33.1343V33.1343ZM87.6572 33.1343C87.114 33.1466 86.5736 33.052 86.0672 32.856C85.5609 32.6601 85.0984 32.3666 84.7064 31.9925C84.3144 31.6183 84.0006 31.1709 83.783 30.6758C83.5654 30.1808 83.4483 29.6478 83.4385 29.1077C83.4385 26.8846 85.3285 25.0978 87.6572 25.0978C89.986 25.0978 91.8591 26.8846 91.8591 29.1077C91.8503 29.6467 91.7345 30.1788 91.5184 30.6732C91.3022 31.1677 90.99 31.6148 90.5996 31.9889C90.2091 32.3631 89.7482 32.6569 89.2433 32.8534C88.7384 33.05 88.1994 33.1454 87.6572 33.1343V33.1343ZM125.272 49.7863H124.883C119.703 49.7863 115.459 53.8297 115.459 58.7624V97.8965C115.459 102.846 119.703 106.881 124.883 106.881H125.28C130.469 106.881 134.688 102.838 134.688 97.8965V58.7624C134.688 53.8213 130.461 49.7695 125.272 49.7695V49.7863Z" fill="#EEABC4"/>
</g>
<defs>
<clipPath id="clip0_2_265">
<rect width="135" height="151" fill="white" transform="translate(0 0.627441)"/>
</clipPath>
</defs>
</svg>
