<svg width="93" height="152" viewBox="0 0 93 152" fill="none" xmlns="http://www.w3.org/2000/svg">
<g clip-path="url(#clip0_2_280)">
<path d="M80.6403 0.627441H13.9593C7.5761 0.627441 2.42728 5.55172 2.42728 11.6169V140.537C2.42728 146.602 7.58455 151.527 13.9593 151.527H80.6403C87.015 151.527 92.1723 146.602 92.1723 140.537V11.6169C92.1723 5.55172 87.015 0.627441 80.6403 0.627441ZM30.843 7.305H63.765C64.5936 7.305 65.2699 8.47944 65.2699 9.9475C65.2699 11.4072 64.5936 12.5984 63.765 12.5984H30.843C30.006 12.5984 29.3466 11.4072 29.3466 9.9475C29.3466 8.48783 30.006 7.305 30.843 7.305V7.305ZM47.304 140.672C43.2458 140.672 39.9485 137.526 39.9485 133.658C39.9485 129.783 43.2458 126.654 47.304 126.654C51.3622 126.654 54.6595 129.783 54.6595 133.658C54.6595 137.526 51.3622 140.672 47.304 140.672ZM83.5317 116.646H11.0763V19.1669H83.5317V116.646V116.646Z" fill="#EEABC4"/>
</g>
<defs>
<clipPath id="clip0_2_280">
<rect width="93" height="151" fill="white" transform="translate(0 0.627441)"/>
</clipPath>
</defs>
</svg>
