<svg width="176" height="135" viewBox="0 0 176 135" fill="none" xmlns="http://www.w3.org/2000/svg">
<g clip-path="url(#clip0_2_259)">
<path d="M93.1298 134.627L67.0483 123.355V0.627441C67.0483 0.627441 123.737 10.2336 131.54 34.0186C139.342 57.8203 127.182 73.2303 122.907 73.6826C111.006 74.9388 106.481 67.4181 106.481 67.4181V29.0187L93.5405 23.5917L93.1298 134.627ZM100.572 120.557V134.627C100.572 134.627 164.82 115.047 174.274 107.492C183.728 99.9549 152.14 81.1782 135.169 84.8464C135.169 84.8464 117.133 85.6756 100.79 92.3923C100.631 92.4593 100.79 105.039 100.79 105.039L142.259 95.8679L156.867 101.982L100.572 120.557ZM58.4662 114.084C58.4662 114.084 50.5713 118.07 32.9797 117.869C15.3797 117.668 -0.20047 112.886 0.000673216 102.518C0.201816 92.1494 29.1329 80.7846 58.2651 76.0024V90.5582L27.3142 98.5312C27.3142 98.5312 22.0174 105.114 29.1329 105.315C39.1124 105.527 49.0675 104.246 58.6673 101.513L58.4662 114.075V114.084Z" fill="#EEABC4"/>
</g>
<defs>
<clipPath id="clip0_2_259">
<rect width="176" height="134" fill="white" transform="translate(0 0.627441)"/>
</clipPath>
</defs>
</svg>
