<svg width="134" height="135" viewBox="0 0 134 135" fill="none" xmlns="http://www.w3.org/2000/svg">
<g clip-path="url(#clip0_2_271)">
<path d="M133.832 63.1636C132.755 46.9766 125.84 31.7306 114.371 20.257C102.902 8.78344 87.6588 1.86203 71.4723 0.778191V0.627441H62.5361V0.778191C46.3457 1.85793 31.0975 8.77732 19.6237 20.2511C8.14987 31.7249 1.23049 46.9731 0.15075 63.1636H0V72.0913H0.15075C1.2307 88.2809 8.15039 103.528 19.6243 115C31.0983 126.473 46.3464 133.391 62.5361 134.468V134.627H71.4639V134.46C87.6513 133.382 102.897 126.465 114.37 114.995C125.842 103.524 132.761 88.2786 133.841 72.0913H134V63.1636H133.832ZM41.9504 15.2334C37.6372 20.9703 34.0528 28.1561 31.4481 36.3636H18.0565C23.9028 27.2397 32.1733 19.9233 41.942 15.2334H41.9504ZM13.3916 45.2997H29.0947C27.8971 50.9361 27.135 56.9409 26.9005 63.1636H9.10363C9.57263 56.8739 11.0634 50.8523 13.3749 45.2913L13.3916 45.2997ZM9.112 72.0997H26.8838C27.1183 78.3223 27.8887 84.3188 29.078 89.9636H13.3833C11.0088 84.2738 9.56382 78.2395 9.10363 72.0913L9.112 72.0997ZM18.0649 98.8997H31.4397C34.0444 107.099 37.6289 114.285 41.9504 120.021C32.1797 115.335 23.9084 108.017 18.0649 98.8913V98.8997ZM62.5361 125.122C53.3571 122.668 45.4511 112.811 40.6523 98.8913H62.5445V125.122H62.5361ZM62.5361 89.9636H38.1481C36.8376 84.0883 36.0612 78.1065 35.8282 72.0913H62.5445V89.9636H62.5361ZM62.5361 63.1636H35.8282C36.0879 56.8739 36.8835 50.8523 38.1481 45.2913H62.5445V63.1636H62.5361ZM62.5361 36.3636H40.6523C45.4511 22.4527 53.3571 12.5869 62.5445 10.1414V36.3552L62.5361 36.3636ZM115.952 36.3636H102.594C99.9724 28.1561 96.3963 20.9703 92.0664 15.2334C101.833 19.9259 110.103 27.2418 115.952 36.3636V36.3636ZM71.4806 10.1414C80.6512 12.5869 88.5656 22.4527 93.3645 36.3552H71.4639V10.1414H71.4806ZM71.4806 45.2913H95.8603C97.1333 50.8607 97.9121 56.8739 98.1885 63.1636H71.4723V45.2913H71.4806ZM71.4806 72.0913H98.1885C97.9289 78.3809 97.1333 84.4026 95.8603 89.9636H71.4639V72.0913H71.4806ZM71.4806 125.122V98.8913H93.3645C88.5656 112.802 80.6513 122.668 71.4723 125.122H71.4806ZM92.0664 120.021C96.3795 114.276 99.9724 107.099 102.594 98.8913H115.952C110.106 108.015 101.835 115.332 92.0664 120.021V120.021ZM120.625 89.9552H104.922C106.12 84.3188 106.882 78.3139 107.116 72.0913H124.896C124.443 78.2397 123.001 84.2747 120.625 89.9636V89.9552ZM107.116 63.1552C106.892 57.1492 106.158 51.1731 104.922 45.2913H120.625C122.945 50.8607 124.436 56.8739 124.905 63.1636H107.116V63.1552Z" fill="#EEABC4"/>
</g>
<defs>
<clipPath id="clip0_2_271">
<rect width="134" height="134" fill="white" transform="translate(0 0.627441)"/>
</clipPath>
</defs>
</svg>
