<svg width="70" height="71" viewBox="0 0 70 71" fill="none" xmlns="http://www.w3.org/2000/svg">
<g clip-path="url(#clip0_2_200)">
<path d="M34.16 0.627319C53.9595 0.627319 70 16.2968 70 35.6273C70 54.9578 53.956 70.6273 34.16 70.6273C22.9915 70.6273 12.663 65.5978 5.915 57.1663C5.72584 56.9308 5.58593 56.6597 5.5036 56.3691C5.42128 56.0785 5.3982 55.7743 5.43574 55.4746C5.47329 55.1749 5.57069 54.8857 5.72217 54.6244C5.87364 54.3631 6.07609 54.1349 6.3175 53.9533C6.80977 53.5788 7.42851 53.4106 8.04264 53.4845C8.65676 53.5583 9.21802 53.8683 9.6075 54.3488C15.4805 61.6813 24.4475 66.0493 34.1635 66.0493C51.366 66.0493 65.3135 52.4273 65.3135 35.6273C65.3135 18.8273 51.366 5.20532 34.1635 5.20532C29.5218 5.18747 24.9341 6.20013 20.7312 8.17023C16.5283 10.1403 12.8151 13.0187 9.8595 16.5978C9.46385 17.074 8.89824 17.3772 8.28269 17.4432C7.66714 17.5092 7.0501 17.3328 6.5625 16.9513C6.32319 16.7666 6.12347 16.5357 5.97524 16.2722C5.82701 16.0087 5.73329 15.7182 5.69965 15.4177C5.66602 15.1173 5.69316 14.8132 5.77946 14.5235C5.86576 14.2338 6.00946 13.9644 6.202 13.7313C12.9605 5.50632 23.1525 0.627319 34.1635 0.627319H34.16ZM36.0675 24.6443L45.542 34.1188C46.459 35.0358 46.4765 36.4988 45.5805 37.3948L36.33 46.6523C36.1123 46.8654 35.8547 47.0334 35.5719 47.1468C35.2892 47.2602 34.9869 47.3167 34.6823 47.3132C34.3777 47.3096 34.0767 47.246 33.7967 47.126C33.5168 47.006 33.2632 46.8319 33.0505 46.6138C32.8326 46.4009 32.6589 46.1472 32.5392 45.867C32.4195 45.5869 32.3562 45.2859 32.3529 44.9813C32.3497 44.6767 32.4065 44.3745 32.5202 44.0919C32.6339 43.8092 32.8022 43.5518 33.0155 43.3343L38.43 37.9163L2.345 37.9198C2.04043 37.9235 1.73812 37.8671 1.45537 37.7539C1.17261 37.6406 0.914961 37.4727 0.697157 37.2598C0.479354 37.0469 0.30567 36.7931 0.186045 36.513C0.0664189 36.2329 0.00319832 35.9319 0 35.6273C0 34.3638 1.05 33.3383 2.345 33.3383H38.283L32.83 27.8818C32.6121 27.6689 32.4384 27.4152 32.3187 27.135C32.199 26.8549 32.1357 26.5539 32.1324 26.2493C32.1292 25.9447 32.186 25.6425 32.2997 25.3598C32.4134 25.0772 32.5817 24.8198 32.795 24.6023C33.2344 24.1742 33.8257 23.9378 34.4392 23.945C35.0527 23.9522 35.6383 24.2024 36.0675 24.6408V24.6443Z" fill="#4B2840"/>
</g>
<defs>
<clipPath id="clip0_2_200">
<rect width="70" height="70" fill="white" transform="translate(0 0.627319)"/>
</clipPath>
</defs>
</svg>
