<svg width="40" height="41" viewBox="0 0 40 41" fill="none" xmlns="http://www.w3.org/2000/svg">
<g clip-path="url(#clip0_2_169)">
<path d="M20.48 0.627319C26.77 0.627319 32.594 3.41732 36.456 8.11532C36.566 8.24849 36.6481 8.40243 36.6975 8.56798C36.7468 8.73354 36.7623 8.90732 36.7431 9.07899C36.7238 9.25066 36.6703 9.41671 36.5856 9.56726C36.5009 9.7178 36.3867 9.84978 36.25 9.95532C35.9716 10.1735 35.6192 10.2747 35.2674 10.2373C34.9157 10.2 34.5924 10.0271 34.366 9.75532C32.6773 7.70977 30.5555 6.06458 28.1539 4.93846C25.7522 3.81234 23.1305 3.23336 20.478 3.24332C10.648 3.24332 2.678 11.0273 2.678 20.6273C2.678 30.2273 10.648 38.0113 20.478 38.0113C26.028 38.0113 31.154 35.5153 34.51 31.3253C34.7326 31.0507 35.0533 30.8736 35.4042 30.8314C35.7551 30.7892 36.1087 30.8853 36.39 31.0993C36.5279 31.2031 36.6436 31.3335 36.7302 31.4828C36.8167 31.6321 36.8724 31.7973 36.8939 31.9686C36.9153 32.1399 36.9021 32.3137 36.8551 32.4798C36.808 32.6458 36.7281 32.8008 36.62 32.9353C32.764 37.7553 26.862 40.6273 20.48 40.6273C9.166 40.6273 0 31.6733 0 20.6273C0 9.58132 9.168 0.627319 20.48 0.627319ZM34.196 14.9473L39.608 20.3613C40.132 20.8833 40.142 21.7213 39.632 22.2333L34.344 27.5193C34.0931 27.7649 33.7549 27.9007 33.4039 27.8969C33.0528 27.8932 32.7176 27.7502 32.472 27.4993C32.3474 27.3778 32.2479 27.2329 32.1793 27.0729C32.1108 26.9129 32.0744 26.7409 32.0724 26.5669C32.0703 26.3928 32.1026 26.2201 32.1674 26.0585C32.2322 25.8969 32.3283 25.7497 32.45 25.6253L35.544 22.5313H14.924C14.7501 22.5334 14.5775 22.5013 14.4161 22.4367C14.2547 22.3721 14.1075 22.2763 13.9831 22.1549C13.8586 22.0334 13.7594 21.8886 13.6909 21.7288C13.6224 21.569 13.5861 21.3972 13.584 21.2233C13.584 20.4993 14.184 19.9133 14.924 19.9133H35.462L32.346 16.7973C32.0949 16.552 31.9515 16.2169 31.9474 15.8659C31.9433 15.5148 32.0787 15.1765 32.324 14.9253C32.5752 14.68 32.9135 14.5446 33.2646 14.5487C33.6156 14.5528 33.9506 14.6962 34.196 14.9473Z" fill="#4B2840"/>
</g>
<defs>
<clipPath id="clip0_2_169">
<rect width="40" height="40" fill="white" transform="translate(0 0.627319)"/>
</clipPath>
</defs>
</svg>
