<svg width="125" height="152" viewBox="0 0 125 152" fill="none" xmlns="http://www.w3.org/2000/svg">
<g clip-path="url(#clip0_2_273)">
<path d="M90.575 0.627441H91.6333C92.4833 11.1974 88.475 19.0998 83.6083 24.821C78.825 30.5003 72.2833 36.0118 61.7 35.1729C61 24.7539 65.0083 17.4388 69.8667 11.7343C74.3917 6.41578 82.6583 1.68444 90.5833 0.627441H90.575ZM121.875 111.327V111.629C119.004 120.337 114.804 128.542 109.425 135.949C104.675 142.567 98.8667 151.468 88.4833 151.468C79.5083 151.468 73.55 145.629 64.35 145.47C54.625 145.302 49.2667 150.361 40.375 151.627H37.3417C30.8167 150.671 25.5417 145.42 21.7 140.705C8.88529 125.11 1.29078 105.838 0 85.6404L0 78.8622C0.691667 62.3445 8.60833 48.9139 19.125 42.4125C24.6833 38.9479 32.3167 36.0034 40.8167 37.3204C44.4583 37.8909 48.1833 39.1576 51.4417 40.4076C54.5333 41.6156 58.4 43.7463 62.0667 43.6373C64.55 43.5618 67.0167 42.2531 69.5167 41.3303C76.85 38.6459 84.0167 35.5672 93.4917 37.0184C104.867 38.7549 112.942 43.8806 117.933 51.7829C108.308 57.9907 100.7 67.3443 102 83.3251C103.15 97.8379 111.475 106.327 121.875 111.327V111.327Z" fill="#EEABC4"/>
</g>
<defs>
<clipPath id="clip0_2_273">
<rect width="125" height="151" fill="white" transform="translate(0 0.627441)"/>
</clipPath>
</defs>
</svg>
