<svg width="126" height="152" viewBox="0 0 126 152" fill="none" xmlns="http://www.w3.org/2000/svg">
<g clip-path="url(#clip0_2_282)">
<path d="M121.968 121.864C117.659 120.052 115.811 117.644 115.987 114.062C116.172 109.868 113.854 106.797 112.753 105.589C113.417 102.972 115.357 93.9622 112.753 86.127C109.948 77.7465 101.396 64.9451 92.568 52.3617C88.956 47.1942 88.788 41.582 88.5864 35.0806C88.4016 28.8728 88.1832 21.8346 84.8064 14.0245C81.144 5.50978 73.794 0.627441 64.6296 0.627441C59.1402 0.637968 53.7832 2.31111 49.266 5.42589C40.446 11.6672 41.622 25.274 42.3864 34.2837C42.4956 35.5168 42.588 36.6829 42.6468 37.6728C43.1592 46.4979 42.6972 51.1453 42.084 52.5547C41.6892 53.4774 39.7404 56.1032 37.6824 58.8883C35.5488 61.7657 33.138 65.0289 31.1556 68.0657C28.7952 71.7233 26.8884 77.3187 25.0404 82.7211C23.6964 86.6723 22.4196 90.4137 21.1764 92.6452C18.8244 96.9403 19.4124 100.95 19.8996 102.796C19.0092 103.433 17.724 104.683 16.6404 107.032C15.33 109.901 12.6672 111.445 7.13156 112.544C4.58636 113.072 2.83076 114.171 1.91516 115.799C0.571161 118.173 1.30196 121.151 1.96556 123.189C2.94836 126.184 2.33516 128.08 1.22636 131.519C0.974361 132.316 0.680361 133.214 0.386361 134.204C0.150038 134.902 0.0726498 135.643 0.159842 136.375C0.247035 137.106 0.496609 137.809 0.890361 138.432C2.97356 141.712 9.07196 142.869 15.3552 143.633C19.11 144.086 23.2092 145.621 27.1824 147.114C31.0716 148.566 35.0952 150.076 38.7492 150.537C39.3036 150.604 39.8496 150.638 40.3872 150.638C45.906 150.638 48.4008 146.888 49.1904 145.344C54.4162 144.259 59.724 143.614 65.058 143.415C70.3639 143.347 75.6592 143.908 80.8332 145.084C81.438 146.275 83.034 148.993 85.5876 150.394C86.982 151.174 88.9308 151.627 90.93 151.627C93.0636 151.627 97.1208 151.107 100.33 147.643C103.522 144.17 111.527 139.724 117.373 136.486C118.675 135.756 119.893 135.085 120.96 134.472C124.236 132.601 126.034 129.942 125.874 127.157C125.789 126 125.379 124.89 124.691 123.955C124.003 123.02 123.065 122.298 121.985 121.872L121.968 121.864ZM49.3332 121.193C48.9216 118.248 45.2172 115.32 40.9332 111.931C37.4304 109.163 33.4572 106.017 32.3652 103.358C30.0972 97.8714 31.8864 88.2242 34.9944 83.258C36.5316 80.7749 37.7832 76.9999 39.0012 73.3591C40.3116 69.4163 41.664 65.3393 43.176 63.5609C45.5784 60.7758 47.796 55.3566 48.1908 51.095C50.4336 53.2929 53.9196 56.0864 57.1452 56.0864C57.6283 56.0865 58.109 56.0187 58.5732 55.8851C60.7824 55.2307 64.0248 53.3097 67.158 51.4557C69.8628 49.8534 73.1892 47.8821 74.4492 47.6975C76.5996 50.8685 89.0904 79.2146 90.3672 88.3165C91.0846 93.476 90.8827 98.7215 89.7708 103.811C89.2783 103.74 88.7815 103.704 88.284 103.702C84.8064 103.702 83.8824 105.648 83.6472 106.806C83.0256 109.826 82.9584 119.49 82.9584 121.662C81.6984 123.298 75.3312 131.024 66.2004 132.409C62.4792 132.962 59.0016 133.247 55.8684 133.247C53.1972 133.247 51.492 133.029 50.778 132.92L46.1916 127.535C47.9976 126.62 49.8036 124.682 49.3332 121.201V121.193ZM55.1544 32.3878C55.0122 32.4504 54.8722 32.5175 54.7344 32.5891C54.7209 32.2661 54.6901 31.9441 54.642 31.6244C54.138 28.6631 52.2228 26.5156 50.0892 26.5156C49.9259 26.5168 49.763 26.5309 49.602 26.5575C48.3336 26.7756 47.334 27.7487 46.788 29.1413C47.2668 26.0961 48.9468 23.8479 50.946 23.8479C53.2812 23.8479 55.2636 27.0776 55.2636 30.9113C55.2636 31.3895 55.23 31.8761 55.1544 32.3878V32.3878ZM73.3488 34.6696C73.5718 33.9409 73.685 33.1832 73.6848 32.4213C73.6848 28.9483 71.5344 26.2303 68.7876 26.2303C66.108 26.2303 63.9324 29.0071 63.9324 32.4213C63.9324 32.6562 63.9324 32.8911 63.9576 33.126C63.8177 33.0697 63.6777 33.0138 63.5376 32.9582C63.2328 31.9979 63.0798 30.996 63.084 29.9886C63.084 25.8361 65.6712 22.4553 68.8464 22.4553C72.0384 22.4553 74.6172 25.8361 74.6172 29.9886C74.6172 31.7167 74.1552 33.3693 73.3572 34.6779L73.3488 34.6696ZM70.9968 42.7481C70.9548 42.9578 70.8624 43.0501 69.7788 43.6289C69.0759 43.9952 68.3867 44.387 67.7124 44.8033L67.1496 45.1641C64.8648 46.5734 59.5308 49.8954 58.086 50.0883C57.1032 50.2226 56.49 49.8367 55.1292 48.8803C54.8019 48.652 54.4715 48.4283 54.138 48.2092C51.6768 46.5482 50.0892 44.7194 49.9128 44.0064C50.7108 43.3688 52.71 41.7749 53.7264 40.827C55.8012 38.8556 57.8844 37.5302 58.9092 37.5302L59.0688 37.5386C60.2784 37.7651 63.2688 38.9814 65.4528 39.8791C66.4608 40.2901 67.3344 40.6508 67.9476 40.8689C69.8796 41.5568 70.8876 42.4209 71.0052 42.7481H70.9968ZM88.368 135.017C89.46 129.984 90.7116 123.122 90.51 119.079C90.4596 118.156 90.384 117.158 90.3084 116.193C90.1656 114.389 89.9472 111.705 90.1656 110.908C90.2141 110.884 90.2647 110.864 90.3168 110.849C90.3168 113.164 90.8208 117.77 94.4076 119.381C95.4828 119.859 96.7008 120.102 98.0448 120.102C101.648 120.102 105.638 118.29 107.285 116.612C108.181 115.653 108.965 114.595 109.62 113.458C109.771 113.938 109.828 114.442 109.788 114.943C109.57 118.349 111.182 122.87 114.257 124.54L114.702 124.783C115.794 125.37 118.709 126.939 118.751 127.677C118.751 127.677 118.726 127.761 118.566 127.929C117.835 128.6 115.273 129.942 112.795 131.242C108.394 133.549 103.412 136.158 101.17 138.574C98.0196 141.98 94.4496 144.262 92.2992 144.262C92.0601 144.266 91.822 144.232 91.5936 144.161C89.2584 143.406 87.3348 139.95 88.368 135.017V135.017ZM8.65196 122.157C8.41676 121.016 8.23196 120.11 8.43356 119.238C8.57636 118.584 11.7096 117.896 13.0368 117.594C14.91 117.174 16.8504 116.746 18.1188 115.958C19.8324 114.893 20.7564 112.93 21.5796 111.193C22.1676 109.935 22.7808 108.643 23.5116 108.223C23.5797 108.182 23.6586 108.161 23.7384 108.165C25.0992 108.165 27.9636 111.109 29.6184 113.743C30.0384 114.414 30.8112 115.74 31.7016 117.275C34.3896 121.889 38.0604 128.181 39.9756 130.303C41.706 132.199 44.5116 135.848 43.8144 138.985C43.3104 141.418 40.6308 143.39 40.0008 143.826C39.722 143.885 39.4374 143.913 39.1524 143.91C35.4732 143.91 28.2072 140.772 24.3012 139.094L23.73 138.843C21.546 137.903 17.9844 137.316 14.5404 136.746C11.802 136.284 8.05556 135.663 7.43396 135.101C6.92996 134.523 7.51796 132.635 8.02196 130.974C8.39996 129.783 8.77796 128.541 8.98796 127.249C9.19611 125.546 9.08213 123.819 8.65196 122.157V122.157Z" fill="#EEABC4"/>
</g>
<defs>
<clipPath id="clip0_2_282">
<rect width="126" height="151" fill="white" transform="translate(0 0.627441)"/>
</clipPath>
</defs>
</svg>
