<svg width="177" height="135" viewBox="0 0 177 135" fill="none" xmlns="http://www.w3.org/2000/svg">
<g clip-path="url(#clip0_2_263)">
<path fill-rule="evenodd" clip-rule="evenodd" d="M67.4286 0.627441H109.571C127.455 0.627441 144.605 7.68635 157.251 20.2513C169.896 32.8162 177 49.8579 177 67.6274C177 85.3969 169.896 102.439 157.251 115.004C144.605 127.569 127.455 134.627 109.571 134.627H67.4286C49.5454 134.627 32.3947 127.569 19.7494 115.004C7.10406 102.439 0 85.3969 0 67.6274C0 49.8579 7.10406 32.8162 19.7494 20.2513C32.3947 7.68635 49.5454 0.627441 67.4286 0.627441V0.627441ZM66.2907 16.8331C52.733 16.8331 39.7306 22.1846 30.1439 31.7104C20.5572 41.2362 15.1714 54.1559 15.1714 67.6274C15.1714 81.0989 20.5572 94.0187 30.1439 103.544C39.7306 113.07 52.733 118.422 66.2907 118.422H109.445C123.003 118.422 136.005 113.07 145.592 103.544C155.179 94.0187 160.564 81.0989 160.564 67.6274C160.564 54.1559 155.179 41.2362 145.592 31.7104C136.005 22.1846 123.003 16.8331 109.445 16.8331H66.2907V16.8331ZM55.0807 36.1291H75.3177L102.281 79.4697V36.1374H122.054V98.9081H102.66L74.7109 55.3748V98.9332H55.0386L55.0807 36.1291Z" fill="#EEABC4"/>
</g>
<defs>
<clipPath id="clip0_2_263">
<rect width="177" height="134" fill="white" transform="translate(0 0.627441)"/>
</clipPath>
</defs>
</svg>
