<svg width="109" height="135" viewBox="0 0 109 135" fill="none" xmlns="http://www.w3.org/2000/svg">
<g clip-path="url(#clip0_2_267)">
<path d="M62.6163 134.569C88.2397 134.569 109 115.013 109 90.9184C109 66.7733 88.2397 47.2176 62.6163 47.2176L46.3502 47.3014C45.7503 47.3126 45.1704 47.0865 44.7369 46.6723C44.3033 46.2581 44.0514 45.6894 44.036 45.0904C44.036 43.8676 45.0757 42.871 46.3585 42.871L108.857 42.8794L108.883 24.3539H46.3418C34.2512 24.3539 24.416 33.6334 24.416 45.0401C24.416 56.4553 34.2512 65.6929 46.3418 65.6929L62.6834 65.9023C77.3565 65.9023 89.2375 77.0829 89.2375 90.8849C89.2375 104.687 77.3648 115.901 62.6834 115.901H0.0251538L0 134.627L62.6163 134.569Z" fill="#EEABC4"/>
<path d="M0.0503077 110.901H61.9288C73.902 110.901 83.5862 101.638 83.5862 90.1981C83.5862 78.7746 73.902 69.5286 61.9204 69.5286L45.7884 69.3611C31.3165 69.3611 19.5781 58.1386 19.5781 44.2947C19.5781 30.4759 31.3165 19.2618 45.7884 19.2618L107.549 19.2534L107.524 0.627441H45.7968C20.5255 0.627441 0 20.1914 0 44.3449C0 68.4901 20.5255 88.0624 45.7968 88.0624L61.7695 88.0876C62.9852 88.0876 64.0082 89.0339 64.0082 90.2399C64.0082 91.4124 62.9852 92.3588 61.7695 92.3588L0.0251538 92.4091L0.0503077 110.901" fill="#EEABC4"/>
</g>
<defs>
<clipPath id="clip0_2_267">
<rect width="109" height="134" fill="white" transform="translate(0 0.627441)"/>
</clipPath>
</defs>
</svg>
