<svg width="134" height="135" viewBox="0 0 134 135" fill="none" xmlns="http://www.w3.org/2000/svg">
<g clip-path="url(#clip0_2_284)">
<path d="M29.8485 11.9923L29.6643 12.1598C30.0495 11.7578 30.5855 11.3223 30.954 11.0878C41.4395 4.27057 53.5665 0.627441 67 0.627441C79.5793 0.627441 91.3545 4.10307 101.421 10.1414C102.142 10.5769 104.135 11.9421 105.157 13.1816C95.475 2.48669 66.9414 25.4342 66.9414 25.4342C57.084 17.8297 48.0139 12.6539 41.2553 10.8114C35.6105 9.26207 31.7078 10.5602 29.8485 11.9923V11.9923ZM116.153 22.1093C115.86 21.7743 115.533 21.4728 115.24 21.1378C112.786 18.4411 109.771 17.7878 107.049 17.9721C104.579 18.7426 93.1468 22.8631 79.06 36.1626C79.06 36.1626 94.9223 51.5809 104.629 67.3427C114.336 83.1128 120.139 95.4994 116.572 112.693C127.808 100.373 134.025 84.2934 134 67.6191C134.024 50.739 127.649 34.477 116.161 22.1093H116.153ZM91.9575 74.0762C85.7755 67.1725 79.3881 60.4555 72.8039 53.9343C70.8675 52.0011 68.9133 50.086 66.9414 48.1891L59.8394 55.3413C54.6972 60.5338 48.0223 67.3176 44.3205 71.2706C37.7294 78.3056 18.8354 100.407 17.7718 112.794C17.7718 112.794 13.5675 102.962 22.7968 80.2988C28.8268 65.4834 47.0257 43.2394 54.6302 35.9951C54.6302 35.9951 47.6789 28.3487 38.9689 23.0641L38.9103 23.0473C38.9103 23.0473 38.8182 22.9719 38.659 22.8798C34.4715 20.3673 29.8904 18.4411 25.4852 18.1898C22.6779 18.4632 20.0652 19.7458 18.1319 21.7994C6.31287 34.8931 0.134078 52.1195 0.936348 69.7402C1.73862 87.361 9.45722 103.955 22.4172 115.92C35.3772 127.886 52.5329 134.258 70.1616 133.654C87.7902 133.049 104.47 125.518 116.58 112.693C116.58 112.677 115.165 103.849 106.153 91.1696C104.034 88.2048 96.2874 78.9421 91.9492 74.0846L91.9575 74.0762Z" fill="#EEABC4"/>
</g>
<defs>
<clipPath id="clip0_2_284">
<rect width="134" height="134" fill="white" transform="translate(0 0.627441)"/>
</clipPath>
</defs>
</svg>
